<?xml version="1.0" ?><!DOCTYPE svg  PUBLIC '-//W3C//DTD SVG 1.1//EN'  'http://www.w3.org/Graphics/SVG/1.1/DTD/svg11.dtd'><svg height="100%" style="fill-rule:evenodd;clip-rule:evenodd;stroke-linejoin:round;stroke-miterlimit:1.41421;" version="1.1" viewBox="0 0 479 320" width="100%" xml:space="preserve" xmlns="http://www.w3.org/2000/svg" xmlns:serif="http://www.serif.com/" xmlns:xlink="http://www.w3.org/1999/xlink"><rect height="318.43" id="_23.-Staging-website" style="fill:none;" width="478.562" x="0.108" y="0.873"/><g id="Group-1"><path d="M462.286,100.909c0,-8.279 -6.721,-15 -15,-15l-250.906,0c-8.279,0 -15,6.721 -15,15l0,193.656c0,8.279 6.721,15 15,15l250.906,0c8.279,0 15,-6.721 15,-15l0,-193.656Z" id="Rounded-Rectangle-1-copy-3" style="fill:#cce6ff;fill-opacity:0.160784;"/><path d="M448.286,87.534c0,-8.279 -6.721,-15 -15,-15l-247.937,0c-8.279,0 -15,6.721 -15,15l0,191.219c0,8.279 6.721,15 15,15l247.937,0c8.279,0 15,-6.721 15,-15l0,-191.219Z" id="Rounded-Rectangle-1-copy-2" style="fill:#dfefff;"/><path d="M183.511,115.001l248.554,0l0,156.356c0,4.773 -3.87,8.643 -8.644,8.643l-228.025,0c-6.564,0 -11.885,-5.321 -11.885,-11.885l0,-153.114Z" id="Rounded-Rectangle-2-copy" style="fill:#fff;"/><clipPath id="_clip1"><path d="M183.511,115.001l248.554,0l0,156.356c0,4.773 -3.87,8.643 -8.644,8.643l-228.025,0c-6.564,0 -11.885,-5.321 -11.885,-11.885l0,-153.114Z" id="Rounded-Rectangle-2-copy1"/></clipPath><g clip-path="url(#_clip1)"><path d="M407.094,158.789l-3.282,-0.658c-0.968,1.977 -2.25,3.76 -3.833,5.321l1.796,2.705c0.166,0.251 0.225,0.556 0.165,0.848c-0.06,0.297 -0.232,0.555 -0.481,0.719l-5.446,3.631c-0.521,0.346 -1.214,0.201 -1.561,-0.315l-1.934,-2.913c-2.046,0.708 -4.177,1.07 -6.357,1.076l-0.66,3.287c-0.057,0.293 -0.231,0.553 -0.481,0.719c-0.249,0.167 -0.553,0.226 -0.846,0.166l-6.403,-1.296c-0.099,-0.018 -0.193,-0.05 -0.281,-0.094c-0.443,-0.222 -0.702,-0.722 -0.599,-1.233l0.692,-3.449c-1.999,-0.985 -3.725,-2.183 -5.284,-3.717l-2.742,1.834c-0.248,0.167 -0.554,0.229 -0.846,0.171c-0.292,-0.056 -0.55,-0.232 -0.716,-0.482l-3.615,-5.464c-0.343,-0.521 -0.204,-1.221 0.316,-1.568l2.835,-1.896c-0.734,-2.057 -1.129,-4.258 -1.161,-6.461l-3.095,-0.621c-0.292,-0.058 -0.553,-0.232 -0.718,-0.483c-0.165,-0.25 -0.225,-0.554 -0.165,-0.848l1.289,-6.42c0.124,-0.611 0.717,-1.008 1.325,-0.889l3.182,0.634c0.94,-2.041 2.216,-3.889 3.801,-5.517l-1.654,-2.491c-0.166,-0.249 -0.227,-0.555 -0.168,-0.85c0.058,-0.293 0.231,-0.553 0.48,-0.719l5.451,-3.631c0.521,-0.35 1.22,-0.204 1.56,0.312l1.708,2.582c2.121,-0.775 4.355,-1.168 6.665,-1.174l0.571,-2.844c0.122,-0.611 0.716,-1.007 1.326,-0.885l6.404,1.283c0.612,0.13 1.003,0.718 0.881,1.33l-0.604,3.021c2.025,1.033 3.895,2.305 5.504,3.945l2.434,-1.629c0.248,-0.168 0.554,-0.231 0.845,-0.171c0.295,0.061 0.555,0.233 0.718,0.482l3.615,5.458c0.343,0.52 0.201,1.221 -0.315,1.568l-2.65,1.77c0.732,2.122 1.09,4.336 1.066,6.605l3.004,0.598c0.299,0.062 0.551,0.231 0.717,0.48c0.166,0.249 0.226,0.557 0.166,0.849l-1.293,6.438c-0.122,0.612 -0.714,1.009 -1.326,0.886Zm-13.038,-7.787c0.728,-3.606 -1.047,-7.265 -4.316,-8.9c-0.64,-0.32 -1.326,-0.555 -2.032,-0.697c-4.402,-0.882 -8.697,1.986 -9.583,6.392c-0.726,3.609 1.056,7.274 4.332,8.912c0.64,0.32 1.325,0.555 2.034,0.698c2.133,0.429 4.303,-0.004 6.115,-1.216c1.8,-1.209 3.027,-3.053 3.45,-5.189Zm-33.511,7.75c-0.169,0.245 -0.429,0.417 -0.722,0.474l-4.505,0.842c-0.187,2.956 -0.899,5.845 -2.127,8.614l3.666,2.524c0.513,0.351 0.641,1.056 0.289,1.57l-4.772,6.984c-0.355,0.513 -1.068,0.627 -1.568,0.293l-3.922,-2.697c-2.2,1.958 -4.701,3.494 -7.453,4.574l0.835,4.506c0.053,0.295 -0.009,0.6 -0.18,0.847c-0.169,0.247 -0.429,0.421 -0.724,0.475l-8.291,1.55c-0.606,0.11 -1.197,-0.288 -1.312,-0.904l-0.872,-4.705c-2.93,-0.155 -5.783,-0.823 -8.5,-1.99l-2.563,3.74c-0.322,0.47 -0.935,0.621 -1.429,0.373c-0.048,-0.023 -0.093,-0.051 -0.136,-0.081l-6.949,-4.777c-0.51,-0.352 -0.644,-1.055 -0.291,-1.569l2.623,-3.853c-1.976,-2.178 -3.585,-4.748 -4.704,-7.519l-4.27,0.799c-0.608,0.113 -1.199,-0.286 -1.31,-0.9l-1.542,-8.317c-0.116,-0.616 0.292,-1.205 0.898,-1.32l4.375,-0.822c0.124,-3.051 0.793,-6.013 1.992,-8.833l-3.395,-2.336c-0.512,-0.352 -0.642,-1.054 -0.289,-1.568l4.766,-6.985c0.167,-0.249 0.429,-0.417 0.721,-0.474c0.294,-0.053 0.593,0.008 0.842,0.179l3.511,2.411c2.259,-2.076 4.862,-3.702 7.764,-4.845l-0.729,-3.946c-0.055,-0.296 0.009,-0.6 0.178,-0.848c0.169,-0.247 0.429,-0.417 0.723,-0.473l8.287,-1.557c0.613,-0.11 1.2,0.291 1.313,0.904l0.774,4.162c3.052,0.154 6.032,0.877 8.877,2.152l2.287,-3.353c0.172,-0.247 0.431,-0.42 0.723,-0.472c0.295,-0.058 0.587,-0.001 0.845,0.177l6.953,4.78c0.245,0.17 0.414,0.43 0.468,0.724c0.053,0.295 -0.008,0.6 -0.18,0.847l-2.468,3.611c2.017,2.287 3.577,4.883 4.655,7.737l4.159,-0.782c0.294,-0.056 0.594,0.003 0.844,0.177c0.246,0.172 0.416,0.431 0.469,0.725l1.545,8.325c0.054,0.297 -0.01,0.602 -0.179,0.85Zm-19.693,-2.283c-0.625,-3.371 -2.741,-6.183 -5.809,-7.718c-2.117,-1.058 -4.47,-1.388 -6.804,-0.949c-5.872,1.103 -9.757,6.786 -8.668,12.67c0.627,3.378 2.747,6.195 5.815,7.729c2.118,1.06 4.472,1.388 6.806,0.949c5.866,-1.102 9.752,-6.793 8.66,-12.681Z" id="Shape-4" style="fill:#cce6ff;"/><path d="M219.189,235.379l3.215,0.934c1.131,-1.887 2.561,-3.555 4.27,-4.976l-1.56,-2.848c-0.143,-0.263 -0.176,-0.572 -0.092,-0.858c0.085,-0.291 0.279,-0.533 0.541,-0.676l5.734,-3.156c0.549,-0.3 1.227,-0.097 1.529,0.447l1.679,3.067c2.099,-0.532 4.253,-0.712 6.426,-0.533l0.936,-3.219c0.083,-0.287 0.277,-0.531 0.54,-0.676c0.263,-0.144 0.572,-0.178 0.858,-0.093l6.27,1.835c0.096,0.027 0.187,0.066 0.271,0.118c0.423,0.258 0.638,0.778 0.493,1.279l-0.982,3.378c1.908,1.151 3.526,2.492 4.949,4.153l2.888,-1.595c0.261,-0.146 0.571,-0.181 0.857,-0.099c0.287,0.081 0.529,0.277 0.672,0.541l3.139,5.752c0.297,0.547 0.099,1.233 -0.448,1.535l-2.986,1.648c0.557,2.112 0.763,4.339 0.608,6.536l3.031,0.882c0.286,0.083 0.531,0.279 0.675,0.542c0.143,0.264 0.177,0.571 0.092,0.859l-1.83,6.288c-0.175,0.598 -0.799,0.943 -1.395,0.773l-3.117,-0.902c-1.11,1.953 -2.538,3.687 -4.256,5.174l1.437,2.623c0.145,0.262 0.179,0.572 0.096,0.861c-0.083,0.287 -0.278,0.531 -0.541,0.676l-5.739,3.155c-0.549,0.305 -1.232,0.1 -1.528,-0.444l-1.482,-2.718c-2.179,0.592 -4.439,0.795 -6.741,0.605l-0.81,2.784c-0.174,0.599 -0.799,0.943 -1.396,0.77l-6.273,-1.823c-0.599,-0.181 -0.938,-0.8 -0.764,-1.399l0.858,-2.959c-1.931,-1.201 -3.685,-2.628 -5.15,-4.398l-2.563,1.417c-0.262,0.145 -0.572,0.182 -0.857,0.098c-0.288,-0.086 -0.532,-0.279 -0.674,-0.542l-3.138,-5.744c-0.298,-0.548 -0.096,-1.234 0.446,-1.536l2.792,-1.538c-0.55,-2.178 -0.718,-4.413 -0.502,-6.673l-2.942,-0.85c-0.293,-0.087 -0.529,-0.278 -0.674,-0.54c-0.144,-0.261 -0.178,-0.573 -0.094,-0.86l1.836,-6.305c0.173,-0.599 0.797,-0.944 1.396,-0.77Zm12.329,8.867c-1.031,3.53 0.428,7.327 3.546,9.234c0.61,0.373 1.273,0.665 1.966,0.867c4.31,1.252 8.833,-1.241 10.091,-5.556c1.029,-3.534 -0.436,-7.337 -3.56,-9.247c-0.611,-0.374 -1.274,-0.666 -1.968,-0.868c-2.089,-0.609 -4.288,-0.362 -6.195,0.692c-1.897,1.052 -3.277,2.785 -3.88,4.878Zm34.049,-4.878c0.189,-0.229 0.463,-0.378 0.759,-0.41l4.56,-0.457c0.438,-2.929 1.393,-5.748 2.851,-8.402l-3.438,-2.826c-0.481,-0.394 -0.549,-1.106 -0.154,-1.589l5.348,-6.553c0.396,-0.482 1.117,-0.534 1.586,-0.159l3.679,3.019c2.358,-1.764 4.981,-3.081 7.814,-3.923l-0.448,-4.561c-0.028,-0.299 0.059,-0.597 0.251,-0.829c0.189,-0.232 0.463,-0.383 0.761,-0.412l8.393,-0.84c0.613,-0.058 1.168,0.388 1.231,1.011l0.468,4.763c2.907,0.403 5.693,1.311 8.301,2.704l2.872,-3.509c0.36,-0.441 0.984,-0.538 1.455,-0.25c0.046,0.027 0.089,0.059 0.128,0.092l6.519,5.35c0.478,0.395 0.552,1.106 0.157,1.588l-2.942,3.617c1.785,2.338 3.17,5.035 4.05,7.891l4.322,-0.434c0.616,-0.061 1.17,0.387 1.229,1.008l0.83,8.418c0.063,0.624 -0.393,1.176 -1.007,1.24l-4.428,0.447c-0.384,3.03 -1.302,5.924 -2.736,8.632l3.184,2.616c0.482,0.393 0.551,1.104 0.156,1.587l-5.342,6.555c-0.188,0.234 -0.463,0.378 -0.758,0.41c-0.299,0.028 -0.591,-0.058 -0.825,-0.249l-3.293,-2.701c-2.427,1.877 -5.159,3.276 -8.147,4.169l0.391,3.993c0.029,0.3 -0.06,0.598 -0.25,0.831c-0.189,0.231 -0.463,0.378 -0.76,0.409l-8.39,0.847c-0.62,0.059 -1.17,-0.391 -1.231,-1.011l-0.418,-4.214c-3.028,-0.412 -5.935,-1.385 -8.662,-2.897l-2.564,3.146c-0.192,0.232 -0.465,0.382 -0.76,0.41c-0.299,0.032 -0.584,-0.05 -0.827,-0.249l-6.522,-5.352c-0.229,-0.191 -0.376,-0.464 -0.405,-0.762c-0.027,-0.299 0.06,-0.597 0.251,-0.829l2.766,-3.388c-1.815,-2.45 -3.149,-5.169 -3.981,-8.104l-4.21,0.426c-0.298,0.031 -0.592,-0.054 -0.826,-0.248c-0.231,-0.192 -0.378,-0.465 -0.406,-0.762l-0.832,-8.427c-0.03,-0.3 0.06,-0.599 0.25,-0.832Zm19.428,3.947c0.337,3.412 2.206,6.394 5.133,8.184c2.019,1.234 4.336,1.763 6.699,1.523c5.944,-0.601 10.297,-5.932 9.712,-11.888c-0.337,-3.419 -2.211,-6.406 -5.137,-8.195c-2.021,-1.236 -4.339,-1.762 -6.702,-1.523c-5.938,0.599 -10.293,5.94 -9.705,11.899Z" id="Shape-4-copy" style="fill:#cce6ff;"/><path d="M428.942,224.533l0,6.69l-9.31,4.138c-0.367,1.931 -0.874,3.811 -1.508,5.633l5.993,8.237l-3.345,5.794l-10.141,-1.073c-1.27,1.469 -2.646,2.844 -4.115,4.114l1.073,10.142l-5.793,3.345l-8.237,-5.993c-1.821,0.634 -3.703,1.141 -5.634,1.508l-4.138,9.31l-6.689,0l-4.138,-9.311c-1.932,-0.366 -3.813,-0.873 -5.634,-1.507l-8.237,5.993l-5.793,-3.345l1.072,-10.141c-1.469,-1.27 -2.845,-2.645 -4.115,-4.115l-10.14,1.073l-3.345,-5.794l5.992,-8.236c-0.634,-1.822 -1.141,-3.703 -1.508,-5.635l-9.31,-4.137l0,-6.69l9.31,-4.138c0.367,-1.931 0.873,-3.813 1.507,-5.635l-5.991,-8.235l3.345,-5.794l10.144,1.073c1.27,-1.468 2.643,-2.845 4.111,-4.115l-1.072,-10.141l5.793,-3.345l8.237,5.993c1.822,-0.634 3.703,-1.141 5.634,-1.508l4.138,-9.31l6.689,0l4.138,9.31c1.931,0.367 3.812,0.874 5.633,1.508l8.238,-5.993l5.793,3.345l-1.073,10.141c1.469,1.27 2.842,2.647 4.112,4.115l10.144,-1.073l3.345,5.794l-5.992,8.235c0.635,1.822 1.141,3.704 1.508,5.635l9.309,4.138Zm-48.5,-11.718c-8.318,0 -15.062,6.744 -15.062,15.063c0,8.319 6.744,15.062 15.062,15.062c8.319,0 15.063,-6.743 15.063,-15.062c0,-8.319 -6.744,-15.063 -15.063,-15.063Z" id="Shape-3" style="fill:url(#_Linear2);"/></g><circle cx="216.333" cy="92.894" id="Ellipse-1-copy-5" r="7.078" style="fill:#0084ff;"/><circle cx="195.989" cy="92.894" id="Ellipse-1-copy-4" r="7.078" style="fill:#55d7ff;"/><ellipse cx="236.661" cy="92.894" id="Ellipse-1-copy-3" rx="7.063" ry="7.078" style="fill:#0bbc00;"/><path d="M388.817,92.409c0,-3.587 -2.912,-6.5 -6.5,-6.5l-68.031,0c-3.587,0 -6.5,2.913 -6.5,6.5l0,1.063c0,3.587 2.913,6.5 6.5,6.5l68.031,0c3.588,0 6.5,-2.913 6.5,-6.5l0,-1.063Z" id="Rounded-Rectangle-3-copy" style="fill:#e5f1ff;"/><path d="M433.817,92.362c0,-3.613 -2.933,-6.547 -6.546,-6.547l-9,0c-3.614,0 -6.547,2.934 -6.547,6.547l0,1.063c0,3.613 2.933,6.547 6.547,6.547l9,0c3.613,0 6.546,-2.934 6.546,-6.547l0,-1.063Z" id="Rounded-Rectangle-3-copy-3" style="fill:#e5f1ff;"/></g><path d="M304.556,44.662c0,-8.279 -6.721,-15 -15,-15l-250.915,0c-8.279,0 -15,6.721 -15,15l0,193.651c0,8.279 6.721,15 15,15l250.915,0c8.279,0 15,-6.721 15,-15l0,-193.651Z" id="Rounded-Rectangle-1-copy" style="fill:#cce6ff;fill-opacity:0.54902;"/><path d="M283.942,20.378l160,57l-156,0" id="Shape-5" style="fill:url(#_Linear3);"/><path d="M180.942,292.378l-160,-57l156,0" id="Shape-5-copy" style="fill:url(#_Linear4);"/><path d="M290.544,31.291c0,-8.278 -6.721,-15 -15,-15l-247.944,0c-8.278,0 -15,6.722 -15,15l0,191.221c0,8.278 6.722,15 15,15l247.944,0c8.279,0 15,-6.722 15,-15l0,-191.221Z" id="Rounded-Rectangle-1" style="fill:url(#_Linear5);"/><path d="M25.776,58.749l248.554,0l0,156.355c0,4.774 -3.87,8.644 -8.644,8.644l-228.025,0c-6.564,0 -11.885,-5.321 -11.885,-11.885l0,-153.114Z" id="Rounded-Rectangle-2" style="fill:#fff;"/><clipPath id="_clip6"><path d="M25.776,58.749l248.554,0l0,156.355c0,4.774 -3.87,8.644 -8.644,8.644l-228.025,0c-6.564,0 -11.885,-5.321 -11.885,-11.885l0,-153.114Z"/></clipPath><g clip-path="url(#_clip6)"><rect height="41.428" id="Rectangle-1" style="fill:#e5f1ff;" width="199.747" x="46.33" y="70.719"/><rect height="34.473" id="Rectangle-2" style="fill:#e5f1ff;" width="63.847" x="47.917" y="120.723"/><rect height="42.002" id="Rectangle-2-copy" style="fill:#e5f1ff;" width="134.684" x="47.917" y="169.174"/><rect height="42.002" id="Rectangle-2-copy-2" style="fill:#e5f1ff;" width="54.866" x="190.704" y="169.174"/><rect height="12.358" id="Rectangle-3" style="fill:#e5f1ff;" width="55.373" x="120.982" y="120.959"/><rect height="13.235" id="Rectangle-4" style="fill:#e5f1ff;" width="125.703" x="120.509" y="142.129"/></g><circle cx="58.604" cy="36.634" id="Ellipse-1" r="7.074" style="fill:#0084ff;"/><circle cx="38.244" cy="36.634" id="Ellipse-1-copy" r="7.074" style="fill:#55d7ff;"/><circle cx="78.929" cy="36.634" id="Ellipse-1-copy-2" r="7.074" style="fill:#0bbc00;"/><path d="M231.086,36.162c0,-3.588 -2.913,-6.5 -6.5,-6.5l-68.033,0c-3.588,0 -6.5,2.912 -6.5,6.5l0,1.046c0,3.587 2.912,6.5 6.5,6.5l68.033,0c3.587,0 6.5,-2.913 6.5,-6.5l0,-1.046Z" id="Rounded-Rectangle-3" style="fill:#e5f1ff;"/><path d="M276.093,36.109c0,-3.614 -2.934,-6.548 -6.549,-6.548l-9.018,0c-3.614,0 -6.548,2.934 -6.548,6.548l0,1.05c0,3.614 2.934,6.549 6.548,6.549l9.018,0c3.615,0 6.549,-2.935 6.549,-6.549l0,-1.05Z" id="Rounded-Rectangle-3-copy-2" style="fill:#e5f1ff;"/><defs><linearGradient gradientTransform="matrix(65.2684,140.617,-140.617,65.2684,358.166,202.206)" gradientUnits="userSpaceOnUse" id="_Linear2" x1="0" x2="1" y1="0" y2="0"><stop offset="0" style="stop-color:#0084ff;stop-opacity:1"/><stop offset="1" style="stop-color:#88cfff;stop-opacity:1"/></linearGradient><linearGradient gradientTransform="matrix(-32.0877,103.885,-103.885,-32.0877,349.106,-12.7753)" gradientUnits="userSpaceOnUse" id="_Linear3" x1="0" x2="1" y1="0" y2="0"><stop offset="0" style="stop-color:#cce6ff;stop-opacity:1"/><stop offset="1" style="stop-color:#cce6ff;stop-opacity:0"/></linearGradient><linearGradient gradientTransform="matrix(35.3395,-68.4315,68.4315,35.3395,117.093,307.188)" gradientUnits="userSpaceOnUse" id="_Linear4" x1="0" x2="1" y1="0" y2="0"><stop offset="0" style="stop-color:#cce6ff;stop-opacity:1"/><stop offset="1" style="stop-color:#cce6ff;stop-opacity:0"/></linearGradient><linearGradient gradientTransform="matrix(1.58322e-14,258.559,-258.559,1.58322e-14,17.981,120.807)" gradientUnits="userSpaceOnUse" id="_Linear5" x1="0" x2="1" y1="0" y2="0"><stop offset="0" style="stop-color:#cce6ff;stop-opacity:1"/><stop offset="1" style="stop-color:#1d98ff;stop-opacity:1"/></linearGradient></defs></svg>