<?xml version="1.0" encoding="UTF-8"?>
<!DOCTYPE svg PUBLIC "-//W3C//DTD SVG 1.1//EN" "http://www.w3.org/Graphics/SVG/1.1/DTD/svg11.dtd">
<svg xmlns="http://www.w3.org/2000/svg" xmlns:xlink="http://www.w3.org/1999/xlink" version="1.1" width="497px" height="500px" viewBox="-0.5 -0.5 497 500"><defs/><g><ellipse cx="248" cy="40" rx="40" ry="40" fill="#00cc00" stroke="none" pointer-events="all"/><ellipse cx="352" cy="160" rx="40" ry="40" fill="#ff0000" stroke="none" pointer-events="all"/><ellipse cx="144" cy="160" rx="40" ry="40" fill="#00cc00" stroke="none" pointer-events="all"/><ellipse cx="456" cy="290" rx="40" ry="40" fill="#00cc00" stroke="none" pointer-events="all"/><ellipse cx="245" cy="290" rx="40" ry="40" fill="#00cc00" stroke="none" pointer-events="all"/><ellipse cx="40" cy="290" rx="40" ry="40" fill="#00cc00" stroke="none" pointer-events="all"/><ellipse cx="245" cy="459" rx="40" ry="40" fill="#00cc00" stroke="none" pointer-events="all"/><ellipse cx="40" cy="459" rx="40" ry="40" fill="#00cc00" stroke="none" pointer-events="all"/><path d="M 68.28 261.72 L 120.12 192.09" fill="none" stroke="#000000" stroke-width="8" stroke-miterlimit="10" pointer-events="stroke"/><path d="M 273.28 261.72 L 323.72 188.28" fill="none" stroke="#000000" stroke-width="8" stroke-miterlimit="10" pointer-events="stroke"/><path d="M 326.63 129.08 L 276.7 67.86" fill="none" stroke="#ff0000" stroke-width="8" stroke-miterlimit="10" pointer-events="stroke"/><path d="M 172.28 131.72 L 219.3 67.86" fill="none" stroke="#000000" stroke-width="8" stroke-miterlimit="10" pointer-events="stroke"/><path d="M 432.12 257.91 L 380.28 188.28" fill="none" stroke="#000000" stroke-width="8" stroke-miterlimit="10" pointer-events="stroke"/><path d="M 40 419 L 40 330" fill="none" stroke="#000000" stroke-width="8" stroke-miterlimit="10" pointer-events="stroke"/><ellipse cx="456" cy="459" rx="40" ry="40" fill="#00cc00" stroke="none" pointer-events="all"/><path d="M 245 419 L 245 330" fill="none" stroke="#000000" stroke-width="8" stroke-miterlimit="10" pointer-events="stroke"/><path d="M 456 419 L 456 330" fill="none" stroke="#000000" stroke-width="8" stroke-miterlimit="10" pointer-events="stroke"/></g></svg>