<svg version="1.1" id="Capa_1" xmlns="http://www.w3.org/2000/svg" x="0px" y="0px"
	 viewBox="0 0 464 464" style="enable-background:new 0 0 464 464;" xml:space="preserve">
<g>
	<path style="fill:#29485A;" d="M40,104.432c-4.418,0-8-3.582-8-8v-32c0-4.418,3.582-8,8-8s8,3.582,8,8v32
		C48,100.85,44.418,104.432,40,104.432z"/>
	<path style="fill:#29485A;" d="M280,104.432c-4.418,0-8-3.582-8-8v-32c0-4.418,3.582-8,8-8s8,3.582,8,8v32
		C288,100.85,284.418,104.432,280,104.432z"/>
	<path style="fill:#29485A;" d="M424,204.936c-4.418,0-8-3.582-8-8V40.432h-96c-4.418,0-8-3.582-8-8s3.582-8,8-8h104
		c4.418,0,8,3.582,8,8v164.504C432,201.354,428.418,204.936,424,204.936z"/>
	<path style="fill:#29485A;" d="M40,200.432c-4.418,0-8-3.582-8-8v-32c0-4.418,3.582-8,8-8s8,3.582,8,8v32
		C48,196.85,44.418,200.432,40,200.432z"/>
	<path style="fill:#29485A;" d="M40,296.432c-4.418,0-8-3.582-8-8v-32c0-4.418,3.582-8,8-8s8,3.582,8,8v32
		C48,292.85,44.418,296.432,40,296.432z"/>
	<path style="fill:#29485A;" d="M242.496,416.432H40c-4.418,0-8-3.582-8-8v-56c0-4.418,3.582-8,8-8s8,3.582,8,8v48h194.496
		c4.418,0,8,3.582,8,8S246.914,416.432,242.496,416.432z"/>
</g>
<g>
	<path style="fill:#06AAE9;" d="M16,0.432h288c8.837,0,16,7.163,16,16v32c0,8.837-7.163,16-16,16H16c-8.837,0-16-7.163-16-16v-32
		C0,7.595,7.163,0.432,16,0.432z"/>
	<path style="fill:#06AAE9;" d="M16,192.432h288c8.837,0,16,7.163,16,16v32c0,8.837-7.163,16-16,16H16c-8.837,0-16-7.163-16-16v-32
		C0,199.595,7.163,192.432,16,192.432z"/>
</g>
<path style="fill:#ED1C24;" d="M280,48.432c-8.837,0-16-7.163-16-16s7.163-16,16-16s16,7.163,16,16S288.837,48.432,280,48.432z"/>
<path style="fill:#E6E6E6;" d="M192,40.432H32c-4.418,0-8-3.582-8-8s3.582-8,8-8h160c4.418,0,8,3.582,8,8S196.418,40.432,192,40.432
	z"/>
<path style="fill:#F8CF26;" d="M248,40.432h-24c-4.418,0-8-3.582-8-8s3.582-8,8-8h24c4.418,0,8,3.582,8,8S252.418,40.432,248,40.432
	z"/>
<g>
	<path style="fill:#3B6882;" d="M16,96.432h288c8.837,0,16,7.163,16,16v32c0,8.837-7.163,16-16,16H16c-8.837,0-16-7.163-16-16v-32
		C0,103.595,7.163,96.432,16,96.432z"/>
	<path style="fill:#3B6882;" d="M16,287.568h288c8.837,0,16,7.163,16,16v32c0,8.837-7.163,16-16,16H16c-8.837,0-16-7.163-16-16v-32
		C0,294.731,7.163,287.568,16,287.568z"/>
</g>
<path style="fill:#ED1C24;" d="M280,144.432c-8.837,0-16-7.163-16-16s7.163-16,16-16s16,7.163,16,16S288.837,144.432,280,144.432z"
	/>
<path style="fill:#E6E6E6;" d="M192,136.432H32c-4.418,0-8-3.582-8-8s3.582-8,8-8h160c4.418,0,8,3.582,8,8
	S196.418,136.432,192,136.432z"/>
<g>
	<path style="fill:#F8CF26;" d="M248,136.432h-24c-4.418,0-8-3.582-8-8s3.582-8,8-8h24c4.418,0,8,3.582,8,8
		S252.418,136.432,248,136.432z"/>
	<path style="fill:#F8CF26;" d="M248,232h-24c-4.418,0-8-3.582-8-8s3.582-8,8-8h24c4.418,0,8,3.582,8,8S252.418,232,248,232z"/>
	<path style="fill:#F8CF26;" d="M248,327.568h-24c-4.418,0-8-3.582-8-8s3.582-8,8-8h24c4.418,0,8,3.582,8,8
		S252.418,327.568,248,327.568z"/>
</g>
<path style="fill:#E6E6E6;" d="M192,232.432H32c-4.418,0-8-3.582-8-8s3.582-8,8-8h160c4.418,0,8,3.582,8,8
	S196.418,232.432,192,232.432z"/>
<path style="fill:#025A7A;" d="M232,360.432v67.712c0,19.568,51.936,35.424,116,35.424s116-15.856,116-35.424v-67.712"/>
<path style="fill:#0378A3;" d="M232,288.432v67.712c0,19.568,51.936,35.424,116,35.424s116-15.856,116-35.424v-67.712"/>
<path style="fill:#3593B5;" d="M232,216.432v67.712c0,19.568,51.936,35.424,116,35.424s116-15.856,116-35.424v-67.712"/>
<path style="fill:#E6E6E6;" d="M192,328.432H32c-4.418,0-8-3.582-8-8s3.582-8,8-8h160c4.418,0,8,3.582,8,8
	S196.418,328.432,192,328.432z"/>
<ellipse style="fill:#68AEC8;" cx="348" cy="212.432" rx="116" ry="36"/>
</svg>
