<?xml version="1.0" encoding="utf-8"?>
<!-- Generator: Adobe Illustrator 22.1.0, SVG Export Plug-In . SVG Version: 6.00 Build 0)  -->
<svg version="1.1" id="图层_1" xmlns="http://www.w3.org/2000/svg" x="0px" y="0px"
	 viewBox="0 0 48 48" style="enable-background:new 0 0 48 48;" xml:space="preserve">
<style type="text/css">
	.st0{fill:#0DBD8B;}
</style>
<path class="st0" d="M17.3,2.9c0-1.6,1.3-2.9,2.9-2.9c10.6,0,19.2,8.6,19.2,19.2c0,1.6-1.3,2.9-2.9,2.9s-2.9-1.3-2.9-2.9
	c0-7.4-6-13.4-13.4-13.4C18.6,5.8,17.3,4.5,17.3,2.9z"/>
<path class="st0" d="M30.7,45.1c0,1.6-1.3,2.9-2.9,2.9C17.2,48,8.6,39.4,8.6,28.8c0-1.6,1.3-2.9,2.9-2.9c1.6,0,2.9,1.3,2.9,2.9
	c0,7.4,6,13.4,13.4,13.4C29.4,42.2,30.7,43.5,30.7,45.1z"/>
<path class="st0" d="M2.9,30.7c-1.6,0-2.9-1.3-2.9-2.9C0,17.2,8.6,8.6,19.2,8.6c1.6,0,2.9,1.3,2.9,2.9c0,1.6-1.3,2.9-2.9,2.9
	c-7.4,0-13.4,6-13.4,13.4C5.8,29.4,4.5,30.7,2.9,30.7z"/>
<path class="st0" d="M45.1,17.3c1.6,0,2.9,1.3,2.9,2.9c0,10.6-8.6,19.2-19.2,19.2c-1.6,0-2.9-1.3-2.9-2.9c0-1.6,1.3-2.9,2.9-2.9
	c7.4,0,13.4-6,13.4-13.4C42.2,18.6,43.5,17.3,45.1,17.3z"/>
</svg>
