<?xml version="1.0" encoding="iso-8859-1"?>
<!-- Generator: Adobe Illustrator 19.0.0, SVG Export Plug-In . SVG Version: 6.00 Build 0)  -->
<svg version="1.1" id="Layer_1" xmlns="http://www.w3.org/2000/svg" xmlns:xlink="http://www.w3.org/1999/xlink" x="0px" y="0px"
	 viewBox="0 0 512 512" style="enable-background:new 0 0 512 512;" xml:space="preserve">
<path style="fill:#E6EAEA;" d="M503.983,4.276H8.017C3.589,4.276,0,7.865,0,12.292v487.415c0,4.427,3.589,8.017,8.017,8.017h495.967
	c4.427,0,8.017-3.589,8.017-8.017V12.292C512,7.865,508.411,4.276,503.983,4.276z"/>
<path style="fill:#9BAAAB;" d="M503.983,4.276H8.017C3.589,4.276,0,7.865,0,12.292v110.63h512V12.292
	C512,7.865,508.411,4.276,503.983,4.276z"/>
<path style="fill:#CDD4D5;" d="M8.017,4.276C3.589,4.276,0,7.865,0,12.292v487.415c0,4.427,3.589,8.017,8.017,8.017H256V4.276H8.017
	z"/>
<path style="fill:#687F82;" d="M8.017,4.276C3.589,4.276,0,7.865,0,12.292v110.63h256V4.276H8.017z"/>
<path style="fill:#4ACFD9;" d="M264.551,29.929c-18.566,0-33.67,15.105-33.67,33.67s15.105,33.67,33.67,33.67
	s33.67-15.105,33.67-33.67S283.117,29.929,264.551,29.929z"/>
<path style="fill:#FF8C29;" d="M170.489,29.929c-18.566,0-33.67,15.105-33.67,33.67s15.105,33.67,33.67,33.67
	s33.67-15.105,33.67-33.67S189.054,29.929,170.489,29.929z"/>
<path style="fill:#F0353D;" d="M76.426,29.929c-18.566,0-33.67,15.105-33.67,33.67s15.105,33.67,33.67,33.67
	s33.67-15.105,33.67-33.67S94.992,29.929,76.426,29.929z"/>
<g>
	<path style="fill:#FFFFFF;" d="M427.023,54.514H332.96c-4.428,0-8.017-3.589-8.017-8.017s3.588-8.017,8.017-8.017h94.063
		c4.428,0,8.017,3.589,8.017,8.017S431.451,54.514,427.023,54.514z"/>
	<path style="fill:#FFFFFF;" d="M469.779,54.514h-17.102c-4.428,0-8.017-3.589-8.017-8.017s3.588-8.017,8.017-8.017h17.102
		c4.428,0,8.017,3.589,8.017,8.017S474.207,54.514,469.779,54.514z"/>
</g>
<g>
	<path style="fill:#FD6A33;" d="M464.942,290.914l-81.236-76.959c-4.664-4.419-10.771-6.767-17.19-6.583
		c-6.422,0.174-12.392,2.838-16.809,7.501c-4.419,4.664-6.757,10.768-6.583,17.191c0.174,6.421,2.837,12.391,7.501,16.809
		l62.274,58.995l-61.769,55.267c-4.788,4.283-7.62,10.175-7.977,16.589c-0.356,6.414,1.806,12.583,6.091,17.371
		c4.557,5.092,11.091,8.012,17.927,8.014c0.001,0,0.002,0,0.003,0c5.918,0,11.611-2.176,16.029-6.127l81.236-72.685
		c4.996-4.47,7.915-10.878,8.01-17.581C472.543,302.012,469.807,295.524,464.942,290.914z"/>
	<path style="fill:#FD6A33;" d="M306.48,219.121c-11.495-6.614-26.226-2.647-32.842,8.843l-81.236,141.094
		c-6.618,11.492-2.65,26.225,8.843,32.843c3.648,2.099,7.792,3.21,11.983,3.21c8.585,0,16.577-4.619,20.857-12.053l81.236-141.093
		c3.205-5.567,4.051-12.05,2.382-18.252C316.033,227.509,312.047,222.327,306.48,219.121z"/>
</g>
<g>
	<path style="fill:#F0353D;" d="M192.402,369.058c-6.618,11.492-2.65,26.225,8.843,32.843c3.648,2.099,7.792,3.21,11.983,3.21
		c8.585,0,16.577-4.619,20.857-12.053l21.913-38.06v-96.4L192.402,369.058z"/>
	<path style="fill:#F0353D;" d="M168.877,232.063c0.174-6.422-2.163-12.527-6.582-17.191c-4.419-4.664-10.389-7.327-16.811-7.501
		c-6.403-0.175-12.526,2.165-17.19,6.582l-81.236,76.96c-4.866,4.61-7.602,11.098-7.507,17.801
		c0.095,6.703,3.015,13.112,8.011,17.581l81.237,72.686c4.417,3.951,10.109,6.126,16.029,6.126c0.001,0,0.002,0,0.003,0
		c6.836,0,13.371-2.921,17.927-8.013c8.842-9.883,7.996-25.117-1.887-33.96l-61.769-55.267l62.274-58.995
		C166.039,244.454,168.703,238.484,168.877,232.063z"/>
</g>
<g>
</g>
<g>
</g>
<g>
</g>
<g>
</g>
<g>
</g>
<g>
</g>
<g>
</g>
<g>
</g>
<g>
</g>
<g>
</g>
<g>
</g>
<g>
</g>
<g>
</g>
<g>
</g>
<g>
</g>
</svg>
