<?xml version="1.0" encoding="windows-1252"?>
<!-- Generator: Adobe Illustrator 19.2.0, SVG Export Plug-In . SVG Version: 6.00 Build 0)  -->
<svg xmlns="http://www.w3.org/2000/svg" xmlns:xlink="http://www.w3.org/1999/xlink" version="1.1" id="Layer_1" x="0px" y="0px" viewBox="0 0 40 40" style="enable-background:new 0 0 40 40;" xml:space="preserve">
<g>
	<path style="fill:#98CCFD;" d="M6,36.5c-1.379,0-2.5-1.121-2.5-2.5V6c0-1.379,1.121-2.5,2.5-2.5h28c1.379,0,2.5,1.121,2.5,2.5v28   c0,1.379-1.121,2.5-2.5,2.5H6z"/>
	<g>
		<path style="fill:#4788C7;" d="M34,4c1.103,0,2,0.897,2,2v28c0,1.103-0.897,2-2,2H6c-1.103,0-2-0.897-2-2V6c0-1.103,0.897-2,2-2    H34 M34,3H6C4.343,3,3,4.343,3,6v28c0,1.657,1.343,3,3,3h28c1.657,0,3-1.343,3-3V6C37,4.343,35.657,3,34,3L34,3z"/>
	</g>
</g>
<circle style="fill:#FFFFFF;" cx="10.5" cy="29.5" r="3.5"/>
<path style="fill:none;stroke:#FFFFFF;stroke-width:4;stroke-miterlimit:10;" d="M7,18c8.284,0,15,6.716,15,15"/>
<path style="fill:none;stroke:#FFFFFF;stroke-width:4;stroke-miterlimit:10;" d="M7,9c13.255,0,24,10.745,24,24"/>
</svg>