<svg id="图层_1" data-name="图层 1" xmlns="http://www.w3.org/2000/svg" viewBox="0 0 256 256"><title>logo-kaciras-circle</title><path d="M156,252.92A128.17,128.17,0,0,0,252.92,156H156Z" style="fill:#ff27fd"/><path d="M156,3.08V100h96.92A128.17,128.17,0,0,0,156,3.08Z" style="fill:#1574e5"/><path d="M100,252.92V156H3.08A128.17,128.17,0,0,0,100,252.92Z" style="fill:#1fe89b"/><path d="M100,100V3.08A128.17,128.17,0,0,0,3.08,100Z" style="fill:#ff6660"/><circle cx="128" cy="128" r="90" style="fill:#424242"/><path d="M86.51,84.5h37.38v3.92c-10.92,1-12.88,2-12.88,14.42v24.08c2.8-.28,6-2.52,10.08-6.44,7.84-7.42,17.22-16.94,23.66-24.22,4.2-4.76,3.78-6.58-2.24-7.42l-3.92-.42V84.5h34v3.92c-10.5,1.26-14.14,2-23.52,11.62-4.2,4.06-15.12,14.7-24.08,23.52,10.64,12.6,26.18,30.52,33.46,38.22s9,8.82,17.64,9.8v3.92h-22.4c-10.78-12.18-22.12-25.76-34.86-40.6-3.22-3.92-5.6-4.2-7.84-4.06v26.6c0,12.18,1.26,13.16,12.88,14.14v3.92H86.51v-3.92c11.48-1,12.6-2,12.6-14.14v-54.6c0-12.6-1-13.58-12.6-14.42Z" style="fill:#fff"/></svg>