<svg id="layer1" xmlns="http://www.w3.org/2000/svg" viewBox="0 0 128.95 145.36"><title>layer1</title><path d="M64.5,145.36a11.25,11.25,0,0,1-5.59-1.49L41.13,133.34c-2.65-1.48-1.36-2-.48-2.31a35.8,35.8,0,0,0,8-3.67,1.36,1.36,0,0,1,1.32.1l13.66,8.1a1.78,1.78,0,0,0,1.65,0l53.27-30.74a1.69,1.69,0,0,0,.81-1.44V41.91a1.73,1.73,0,0,0-.82-1.47L65.33,9.72a1.65,1.65,0,0,0-1.64,0L10.46,40.44a1.7,1.7,0,0,0-.84,1.46v61.46a1.65,1.65,0,0,0,.82,1.43L25,113.22c7.92,4,12.76-.71,12.76-5.4V47.15a1.52,1.52,0,0,1,1.55-1.53h6.74a1.53,1.53,0,0,1,1.54,1.53v60.69c0,10.56-5.76,16.63-15.78,16.63-3.08,0-5.5,0-12.28-3.33l-14-8.06A11.27,11.27,0,0,1,0,103.36V41.9a11.2,11.2,0,0,1,5.59-9.71L58.91,1.43a11.66,11.66,0,0,1,11.2,0L123.36,32.2A11.25,11.25,0,0,1,129,41.91v61.47a11.27,11.27,0,0,1-5.59,9.7L70.11,143.84a11.18,11.18,0,0,1-5.62,1.5" style="fill:#689f63"/><path d="M107.44,84.81c0,11.61-9.68,18.26-26.56,18.26L81,103c-23.3,0-28.19-10.69-28.19-19.67a1.53,1.53,0,0,1,1.54-1.52h6.88a1.54,1.54,0,0,1,1.52,1.3c1,7,4.14,10.54,18.23,10.54,11.23,0,16-2.53,16-8.48,0-3.43-1.36-6-18.8-7.68-14.59-1.44-23.6-4.66-23.6-16.32C54.53,50.42,63.6,44,78.78,44c17.06,0,25.51,5.93,26.58,18.64a1.56,1.56,0,0,1-1.55,1.68H96.89a1.51,1.51,0,0,1-1.49-1.2c-1.67-7.37-5.7-9.73-16.64-9.73-12.26,0-13.68,4.28-13.68,7.47,0,3.88,1.68,5,18.21,7.2C99.66,70.25,107.44,73.31,107.44,84.81Z" style="fill:#689f63"/></svg>
