<svg xmlns="http://www.w3.org/2000/svg" viewBox="0 0 256 256"><title>logo-kaciras-circle</title><path d="M159,255.92A128.169,128.169,0,0,0,255.92,159H159Z" style="fill:#fa50ff"/><path d="M159,0V96.92h96.92A128.166,128.166,0,0,0,159,0Z" style="fill:#15b1e8"/><path d="M97,255.92V159H.08A128.169,128.169,0,0,0,97,255.92Z" style="fill:#17e57e"/><path d="M96.92,96.92V0A128.163,128.163,0,0,0,0,96.92Z" style="fill:#ff6660"/><circle cx="128" cy="128" r="90" style="fill:#424242"/><path d="M86.507,84.5h37.38v3.92c-10.92.98-12.88,1.961-12.88,14.42v24.08c2.8-.279,6.02-2.52,10.08-6.44,7.84-7.419,17.22-16.94,23.66-24.219,4.2-4.761,3.779-6.58-2.24-7.42l-3.92-.421V84.5h34.019v3.92c-10.5,1.261-14.139,1.961-23.519,11.62-4.2,4.061-15.12,14.7-24.08,23.521,10.639,12.6,26.18,30.519,33.46,38.219,7.139,7.7,8.96,8.82,17.639,9.8v3.92h-22.4c-10.78-12.18-22.12-25.76-34.86-40.6-3.22-3.92-5.6-4.2-7.84-4.06v26.6c0,12.18,1.26,13.16,12.88,14.14v3.92H86.507v-3.92c11.48-.98,12.6-1.96,12.6-14.14v-54.6c0-12.6-.98-13.579-12.6-14.42Z" style="fill:#fff"/></svg>