<svg xmlns="http://www.w3.org/2000/svg" xmlns:xlink="http://www.w3.org/1999/xlink" viewBox="0 0 240 160"><defs><clipPath id="clip-path"><rect y="80" width="240" height="80" style="fill:none"/></clipPath><clipPath id="clip-path-2"><rect width="240" height="80" style="fill:none"/></clipPath></defs><title>logo-kaciras-wide</title><g id="Active"><g style="clip-path:url(#clip-path)"><circle cx="175.18" cy="150.91" r="32.09" style="fill:none;stroke:#d681ea;stroke-miterlimit:10;stroke-width:6px"/><circle cx="215.5" cy="98" r="19.5" style="fill:none;stroke:#f88;stroke-miterlimit:10;stroke-width:6px"/><circle cx="119.73" cy="139.42" r="17.5" style="fill:none;stroke:#51b8f2;stroke-miterlimit:10;stroke-width:6px"/><circle cx="172.93" cy="102.82" r="18.58" style="fill:none;stroke:#6b6bed;stroke-miterlimit:10;stroke-width:6px"/><circle cx="93.51" cy="103.13" r="22.8" style="fill:none;stroke:#6aef7d;stroke-miterlimit:10;stroke-width:6px"/><circle cx="60.47" cy="143.02" r="26.6" style="fill:none;stroke:#adf74d;stroke-miterlimit:10;stroke-width:6px"/><circle cx="137.67" cy="83.69" r="17.19" style="fill:none;stroke:#59efc8;stroke-miterlimit:10;stroke-width:6px"/><circle cx="221" cy="144" r="14" style="fill:none;stroke:#ff80c6;stroke-miterlimit:10;stroke-width:6px"/><circle cx="35" cy="96" r="25.5" style="fill:none;stroke:#ffa76c;stroke-miterlimit:10;stroke-width:6px"/><circle cx="21.5" cy="144.5" r="12" style="fill:none;stroke:#f2eb68;stroke-miterlimit:10;stroke-width:6px"/><path d="M12.87,97.28h7.52v20.85h.17c1-1.79,2-3.49,2.92-5.12l9.94-15.73h9L29,116.62l14.17,25.95H34.53L23.75,122l-3.36,4.59v16H12.87Z" style="fill:#ff4848;stroke:#000;stroke-linejoin:bevel;stroke-width:2px"/><path d="M55.85,130.07l-3.27,12.5H44.89L57.46,97.28h9.41l12.49,45.29H71.44L68,130.07Zm11-6.07L64,113.07c-.73-2.85-1.41-6.26-2-9h-.16c-.58,2.82-1.23,6.31-1.92,9L57,124Z" style="fill:#ff4848;stroke:#000;stroke-linejoin:bevel;stroke-width:2px"/><path d="M111.43,141.41a23.22,23.22,0,0,1-9.74,1.77c-12.53,0-20-8.84-20-22.7,0-15.65,9.56-23.82,21.09-23.82,4.47,0,7.63,1,9,1.75l-1.57,6.44a16.06,16.06,0,0,0-7.12-1.53c-7.56,0-13.43,5.4-13.43,16.73,0,10.64,5.18,16.38,13.37,16.38a18.92,18.92,0,0,0,7.29-1.39Z" style="fill:#ff4848;stroke:#000;stroke-linejoin:bevel;stroke-width:2px"/><path d="M125.12,97.28v45.29h-7.57V97.28Z" style="fill:#ff4848;stroke:#000;stroke-linejoin:bevel;stroke-width:2px"/><path d="M133.74,97.91A57.17,57.17,0,0,1,144.57,97c5.65,0,9.72,1,12.52,3.55,2.38,2.17,3.57,5.27,3.57,9.11A12,12,0,0,1,153.14,121v.17c3.1,1.21,4.84,4.3,5.86,9,1.23,5.63,2.36,10.71,3.17,12.41h-7.79c-.64-1.31-1.63-5.26-2.7-10.78-1.12-5.91-3-7.82-7.18-7.9h-3.25v18.68h-7.51ZM141.25,118H145c5,0,8.05-3.08,8.05-7.61,0-4.79-2.83-7.31-7.73-7.34a16.62,16.62,0,0,0-4.11.37Z" style="fill:#ff4848;stroke:#000;stroke-linejoin:bevel;stroke-width:2px"/><path d="M176,130.07l-3.27,12.5H165l12.57-45.29H187l12.49,45.29h-7.93l-3.41-12.5ZM187,124l-2.92-10.93c-.73-2.85-1.41-6.26-2-9h-.16c-.58,2.82-1.23,6.31-1.92,9L177.1,124Z" style="fill:#ff4848;stroke:#000;stroke-linejoin:bevel;stroke-width:2px"/><path d="M204.79,134a19,19,0,0,0,9.31,2.56c4.78,0,7.44-2.51,7.44-6.22,0-3.49-2.17-5.52-7-7.74-6.42-2.82-10.61-7-10.61-13,0-7.32,5.51-12.9,14.48-12.9a19.21,19.21,0,0,1,9.17,2.06l-1.7,6.52a15.33,15.33,0,0,0-7.63-2c-4.67,0-6.71,2.79-6.71,5.47,0,3.48,2.26,5.11,7.61,7.61,6.89,3.23,10.07,7.31,10.07,13.32,0,7.54-5.33,13.51-15.43,13.51-4.17,0-8.46-1.24-10.51-2.58Z" style="fill:#ff4848;stroke:#000;stroke-linejoin:bevel;stroke-width:2px"/></g></g><g id="Default"><g style="clip-path:url(#clip-path-2)"><circle cx="175.18" cy="70.91" r="32.09" style="fill:none;stroke:#cecece;stroke-miterlimit:10;stroke-width:6px;opacity:0.7000000000000001"/><circle cx="215.5" cy="18" r="19.5" style="fill:none;stroke:#cecece;stroke-miterlimit:10;stroke-width:6px;opacity:0.7000000000000001"/><circle cx="119.73" cy="59.42" r="17.5" style="fill:none;stroke:#cecece;stroke-miterlimit:10;stroke-width:6px;opacity:0.7000000000000001"/><circle cx="172.93" cy="22.82" r="18.58" style="fill:none;stroke:#cecece;stroke-miterlimit:10;stroke-width:6px;opacity:0.7000000000000001"/><circle cx="93.51" cy="23.13" r="22.8" style="fill:none;stroke:#cecece;stroke-miterlimit:10;stroke-width:6px;opacity:0.7000000000000001"/><circle cx="60.47" cy="63.02" r="26.6" style="fill:none;stroke:#cecece;stroke-miterlimit:10;stroke-width:6px;opacity:0.7000000000000001"/><circle cx="137.67" cy="3.69" r="17.19" style="fill:none;stroke:#cecece;stroke-miterlimit:10;stroke-width:6px;opacity:0.7000000000000001"/><circle cx="221" cy="64" r="14" style="fill:none;stroke:#cecece;stroke-miterlimit:10;stroke-width:6px;opacity:0.7000000000000001"/><circle cx="35" cy="16" r="25.5" style="fill:none;stroke:#cecece;stroke-miterlimit:10;stroke-width:6px;opacity:0.7000000000000001"/><circle cx="21.5" cy="64.5" r="12" style="fill:none;stroke:#cecece;stroke-miterlimit:10;stroke-width:6px;opacity:0.7000000000000001"/><path d="M12.87,17.28h7.52V38.13h.17c1-1.79,2-3.49,2.92-5.12l9.94-15.73h9L29,36.62l14.17,26H34.53L23.75,42,20.39,46.6v16H12.87Z" style="fill:#ff4d67"/><path d="M55.85,50.07l-3.27,12.5H44.89L57.46,17.28h9.41L79.36,62.57H71.44L68,50.07Zm11-6.07L64,33.07c-.73-2.85-1.41-6.26-2-9h-.16c-.58,2.82-1.23,6.31-1.92,9L57,44Z" style="fill:#ff4d67"/><path d="M111.43,61.41a23.22,23.22,0,0,1-9.74,1.77c-12.53,0-20-8.84-20-22.7,0-15.65,9.56-23.82,21.09-23.82,4.47,0,7.63.95,9,1.75l-1.57,6.44A16.06,16.06,0,0,0,103,23.32c-7.56,0-13.43,5.4-13.43,16.73,0,10.64,5.18,16.38,13.37,16.38A18.92,18.92,0,0,0,110.27,55Z" style="fill:#ff4d67"/><path d="M125.12,17.28V62.57h-7.57V17.28Z" style="fill:#ff4d67"/><path d="M133.74,17.91A57.17,57.17,0,0,1,144.57,17c5.65,0,9.72,1,12.52,3.55,2.38,2.17,3.57,5.27,3.57,9.11A12,12,0,0,1,153.14,41v.17c3.1,1.21,4.84,4.3,5.86,9,1.23,5.63,2.36,10.71,3.17,12.41h-7.79c-.64-1.31-1.63-5.26-2.7-10.78-1.12-5.91-3-7.82-7.18-7.9h-3.25V62.57h-7.51ZM141.25,38H145c5,0,8.05-3.08,8.05-7.61,0-4.79-2.83-7.31-7.73-7.34a16.62,16.62,0,0,0-4.11.37Z" style="fill:#ff4d67"/><path d="M176,50.07l-3.27,12.5H165l12.57-45.29H187l12.49,45.29h-7.93l-3.41-12.5ZM187,44l-2.92-10.93c-.73-2.85-1.41-6.26-2-9h-.16c-.58,2.82-1.23,6.31-1.92,9L177.1,44Z" style="fill:#ff4d67"/><path d="M204.79,54a19,19,0,0,0,9.31,2.56c4.78,0,7.44-2.51,7.44-6.22,0-3.49-2.17-5.52-7-7.74-6.42-2.82-10.61-7-10.61-13,0-7.32,5.51-12.9,14.48-12.9a19.21,19.21,0,0,1,9.17,2.06l-1.7,6.52a15.33,15.33,0,0,0-7.63-2c-4.67,0-6.71,2.79-6.71,5.47,0,3.48,2.26,5.11,7.61,7.61,6.89,3.23,10.07,7.31,10.07,13.32,0,7.54-5.33,13.51-15.43,13.51-4.17,0-8.46-1.24-10.51-2.58Z" style="fill:#ff4d67"/></g></g></svg>