<svg xmlns="http://www.w3.org/2000/svg" viewBox="0 0 256 256"><title>logo-kaciras</title><rect x="164" y="164" width="92" height="92" style="fill:#fa50ff"/><rect y="164" width="92" height="92" style="fill:#17e57e"/><rect x="164" width="92" height="92" style="fill:#15b1e8"/><rect width="92" height="92" style="fill:#ff6660"/><rect x="35" y="35" width="186" height="186" style="fill:#424242"/><path d="M81.018,79h42.664v4.48c-12.463,1.12-14.7,2.24-14.7,16.48v27.521c3.2-.32,6.872-2.88,11.505-7.36,8.949-8.481,19.655-19.361,27.005-27.681,4.793-5.44,4.315-7.52-2.556-8.48l-4.475-.48V79h38.829v4.48c-11.984,1.44-16.139,2.24-26.845,13.28-4.794,4.64-17.257,16.8-27.484,26.881,12.144,14.4,29.881,34.881,38.19,43.68,8.15,8.8,10.227,10.08,20.134,11.2V183H157.718c-12.3-13.92-25.247-29.44-39.788-46.4-3.676-4.48-6.392-4.8-8.949-4.64v30.4c0,13.921,1.438,15.04,14.7,16.161V183H81.018v-4.48c13.1-1.121,14.381-2.24,14.381-16.161v-62.4c0-14.4-1.118-15.52-14.381-16.48Z" style="fill:#fff"/></svg>