<?xml version="1.0" encoding="utf-8"?>
<!-- Generator: Adobe Illustrator 22.1.0, SVG Export Plug-In . SVG Version: 6.00 Build 0)  -->
<svg version="1.1" xmlns="http://www.w3.org/2000/svg" xmlns:xlink="http://www.w3.org/1999/xlink" x="0px" y="0px"
	 viewBox="0 0 240 160" style="enable-background:new 0 0 240 160;" xml:space="preserve">
<style type="text/css">
	.st0{clip-path:url(#SVGID_2_);fill:none;stroke:#E17DEF;stroke-width:6;stroke-miterlimit:10;}
	.st1{clip-path:url(#SVGID_2_);fill:none;stroke:#FF8383;stroke-width:6;stroke-miterlimit:10;}
	.st2{clip-path:url(#SVGID_2_);fill:none;stroke:#51B8F2;stroke-width:6;stroke-miterlimit:10;}
	.st3{clip-path:url(#SVGID_2_);fill:none;stroke:#6660EF;stroke-width:6;stroke-miterlimit:10;}
	.st4{clip-path:url(#SVGID_2_);fill:none;stroke:#6AEF7D;stroke-width:6;stroke-miterlimit:10;}
	.st5{clip-path:url(#SVGID_2_);fill:none;stroke:#ADF74D;stroke-width:6;stroke-miterlimit:10;}
	.st6{clip-path:url(#SVGID_2_);fill:none;stroke:#59EFC8;stroke-width:6;stroke-miterlimit:10;}
	.st7{clip-path:url(#SVGID_2_);fill:none;stroke:#FF7DC4;stroke-width:6;stroke-miterlimit:10;}
	.st8{clip-path:url(#SVGID_2_);fill:none;stroke:#FFA161;stroke-width:6;stroke-miterlimit:10;}
	.st9{clip-path:url(#SVGID_2_);fill:none;stroke:#F4F062;stroke-width:6;stroke-miterlimit:10;}
	.st10{clip-path:url(#SVGID_2_);}
	.st11{fill:#FF4848;stroke:#000000;stroke-width:2;stroke-linejoin:bevel;stroke-miterlimit:10;}
	.st12{opacity:0.75;clip-path:url(#SVGID_4_);fill:none;stroke:#CECECE;stroke-width:6;stroke-miterlimit:10;}
	.st13{clip-path:url(#SVGID_4_);}
	.st14{fill:#FF4848;}
</style>
<g id="Active">
	<defs>
		<rect id="SVGID_1_" y="80" width="240" height="80"/>
	</defs>
	<clipPath id="SVGID_2_">
		<use xlink:href="#SVGID_1_"  style="overflow:visible;"/>
	</clipPath>
	<circle class="st0" cx="175.2" cy="150.9" r="32.1"/>
	<circle class="st1" cx="207.6" cy="97.4" r="21.4"/>
	<circle class="st2" cx="119.7" cy="148.4" r="19.4"/>
	<circle class="st3" cx="164.9" cy="97.8" r="18.6"/>
	<circle class="st4" cx="93.5" cy="103.1" r="22.8"/>
	<circle class="st5" cx="60.5" cy="143" r="26.6"/>
	<circle class="st6" cx="128.7" cy="83.7" r="17.2"/>
	<circle class="st7" cx="222" cy="143" r="13"/>
	<circle class="st8" cx="35" cy="96" r="25.5"/>
	<circle class="st9" cx="21.5" cy="144.5" r="12"/>
	<g class="st10">
		<g>
			<path class="st11" d="M9.5,95.5h7.7V117h0.2c1-1.8,2-3.6,3-5.3l10.3-16.2H40l-13.9,20l14.6,26.8h-9L20.7,121l-3.5,4.7v16.5H9.5
				V95.5z"/>
			<path class="st11" d="M53.8,129.3l-3.4,12.9h-7.9l13-46.7h9.7l12.9,46.7h-8.2l-3.5-12.9H53.8z M65.2,123.1l-3-11.3
				c-0.8-2.9-1.4-6.5-2.1-9.3H60c-0.6,2.9-1.3,6.5-2,9.3l-3,11.3H65.2z"/>
			<path class="st11" d="M111.2,141.1c-1.7,0.9-5.4,1.8-10,1.8c-12.9,0-20.7-9.1-20.7-23.4c0-16.1,9.9-24.6,21.8-24.6
				c4.6,0,7.9,1,9.3,1.8l-1.6,6.6c-1.8-0.8-4.2-1.6-7.3-1.6c-7.8,0-13.9,5.6-13.9,17.2c0,11,5.3,16.9,13.8,16.9
				c2.8,0,5.7-0.6,7.5-1.4L111.2,141.1z"/>
			<path class="st11" d="M125.3,95.5v46.7h-7.8V95.5H125.3z"/>
			<path class="st11" d="M134.2,96.2c2.9-0.6,7-1,11.2-1c5.8,0,10,1,12.9,3.7c2.5,2.2,3.7,5.4,3.7,9.4c0,5.8-3.5,10-7.8,11.7v0.2
				c3.2,1.3,5,4.4,6,9.3c1.3,5.8,2.4,11,3.3,12.8h-8c-0.7-1.3-1.7-5.4-2.8-11.1c-1.2-6.1-3.1-8.1-7.4-8.1h-3.3v19.3h-7.7V96.2z
				 M141.9,116.9h3.9c5.1,0,8.3-3.2,8.3-7.8c0-4.9-2.9-7.5-8-7.6c-2.1,0-3.5,0.2-4.2,0.4V116.9z"/>
			<path class="st11" d="M177.7,129.3l-3.4,12.9h-7.9l13-46.7h9.7l12.9,46.7h-8.2l-3.5-12.9H177.7z M189.1,123.1l-3-11.3
				c-0.8-2.9-1.4-6.5-2.1-9.3h-0.2c-0.6,2.9-1.3,6.5-2,9.3l-3,11.3H189.1z"/>
			<path class="st11" d="M207.4,133.4c2.3,1.4,6,2.6,9.6,2.6c4.9,0,7.7-2.6,7.7-6.4c0-3.6-2.2-5.7-7.3-8
				c-6.6-2.9-10.9-7.2-10.9-13.4c0-7.5,5.7-13.3,14.9-13.3c4.2,0,7.5,1,9.5,2.1l-1.8,6.7c-1.5-0.9-4.2-2-7.9-2
				c-4.8,0-6.9,2.9-6.9,5.6c0,3.6,2.3,5.3,7.8,7.9c7.1,3.3,10.4,7.5,10.4,13.7c0,7.8-5.5,13.9-15.9,13.9c-4.3,0-8.7-1.3-10.8-2.7
				L207.4,133.4z"/>
		</g>
	</g>
</g>
<g id="Default">
	<defs>
		<rect id="SVGID_3_" width="240" height="80"/>
	</defs>
	<clipPath id="SVGID_4_">
		<use xlink:href="#SVGID_3_"  style="overflow:visible;"/>
	</clipPath>
	<circle class="st12" cx="175.2" cy="70.9" r="32.1"/>
	<circle class="st12" cx="207.6" cy="17.4" r="21.4"/>
	<circle class="st12" cx="119.7" cy="68.4" r="19.4"/>
	<circle class="st12" cx="164.9" cy="17.8" r="18.6"/>
	<circle class="st12" cx="93.5" cy="23.1" r="22.8"/>
	<circle class="st12" cx="60.5" cy="63" r="26.6"/>
	<circle class="st12" cx="128.7" cy="3.7" r="17.2"/>
	<circle class="st12" cx="222" cy="63" r="13"/>
	<circle class="st12" cx="35" cy="16" r="25.5"/>
	<circle class="st12" cx="21.5" cy="64.5" r="12"/>
	<g class="st13">
		<g>
			<path class="st14" d="M9.5,15.5h7.7V37h0.2c1-1.8,2-3.6,3-5.3l10.3-16.2H40l-13.9,20l14.6,26.8h-9L20.7,41l-3.5,4.7v16.5H9.5
				V15.5z"/>
			<path class="st14" d="M53.8,49.3l-3.4,12.9h-7.9l13-46.7h9.7l12.9,46.7h-8.2l-3.5-12.9H53.8z M65.2,43.1l-3-11.3
				c-0.8-2.9-1.4-6.5-2.1-9.3H60c-0.6,2.9-1.3,6.5-2,9.3l-3,11.3H65.2z"/>
			<path class="st14" d="M111.2,61.1c-1.7,0.9-5.4,1.8-10,1.8c-12.9,0-20.7-9.1-20.7-23.4c0-16.1,9.9-24.6,21.8-24.6
				c4.6,0,7.9,1,9.3,1.8l-1.6,6.6c-1.8-0.8-4.2-1.6-7.3-1.6c-7.8,0-13.9,5.6-13.9,17.2c0,11,5.3,16.9,13.8,16.9
				c2.8,0,5.7-0.6,7.5-1.4L111.2,61.1z"/>
			<path class="st14" d="M125.3,15.5v46.7h-7.8V15.5H125.3z"/>
			<path class="st14" d="M134.2,16.2c2.9-0.6,7-1,11.2-1c5.8,0,10,1,12.9,3.7c2.5,2.2,3.7,5.4,3.7,9.4c0,5.8-3.5,10-7.8,11.7v0.2
				c3.2,1.3,5,4.4,6,9.3c1.3,5.8,2.4,11,3.3,12.8h-8c-0.7-1.3-1.7-5.4-2.8-11.1c-1.2-6.1-3.1-8.1-7.4-8.1h-3.3v19.3h-7.7V16.2z
				 M141.9,36.9h3.9c5.1,0,8.3-3.2,8.3-7.8c0-4.9-2.9-7.5-8-7.6c-2.1,0-3.5,0.2-4.2,0.4V36.9z"/>
			<path class="st14" d="M177.7,49.3l-3.4,12.9h-7.9l13-46.7h9.7L202,62.2h-8.2l-3.5-12.9H177.7z M189.1,43.1l-3-11.3
				c-0.8-2.9-1.4-6.5-2.1-9.3h-0.2c-0.6,2.9-1.3,6.5-2,9.3l-3,11.3H189.1z"/>
			<path class="st14" d="M207.4,53.4c2.3,1.4,6,2.6,9.6,2.6c4.9,0,7.7-2.6,7.7-6.4c0-3.6-2.2-5.7-7.3-8c-6.6-2.9-10.9-7.2-10.9-13.4
				c0-7.5,5.7-13.3,14.9-13.3c4.2,0,7.5,1,9.5,2.1l-1.8,6.7c-1.5-0.9-4.2-2-7.9-2c-4.8,0-6.9,2.9-6.9,5.6c0,3.6,2.3,5.3,7.8,7.9
				c7.1,3.3,10.4,7.5,10.4,13.7c0,7.8-5.5,13.9-15.9,13.9c-4.3,0-8.7-1.3-10.8-2.7L207.4,53.4z"/>
		</g>
	</g>
	<g class="st13">
	</g>
	<g class="st13">
	</g>
	<g class="st13">
	</g>
	<g class="st13">
	</g>
	<g class="st13">
	</g>
	<g class="st13">
	</g>
	<g class="st13">
	</g>
	<g class="st13">
	</g>
	<g class="st13">
	</g>
	<g class="st13">
	</g>
	<g class="st13">
	</g>
	<g class="st13">
	</g>
	<g class="st13">
	</g>
	<g class="st13">
	</g>
	<g class="st13">
	</g>
</g>
</svg>
