<svg id="图层_1" data-name="图层 1" xmlns="http://www.w3.org/2000/svg" viewBox="0 0 256 256"><title>icon-</title><rect x="164" y="164" width="92" height="92" style="fill:#ff27fd"/><rect y="164" width="92" height="92" style="fill:#17e57e"/><rect x="164" width="92" height="92" style="fill:#15b1e8"/><rect width="92" height="92" style="fill:#ff6660"/><rect x="32" y="32" width="192" height="192" style="fill:#424242"/><path d="M79.88,80H122.6v4.48c-12.48,1.12-14.72,2.24-14.72,16.48v27.52c3.2-.32,6.88-2.88,11.52-7.36,9-8.48,19.68-19.36,27-27.68,4.8-5.44,4.32-7.52-2.56-8.48l-4.48-.48V80h38.88v4.48c-12,1.44-16.16,2.24-26.88,13.28-4.8,4.64-17.28,16.8-27.52,26.88C136,139,153.8,159.52,162.12,168.32c8.16,8.8,10.24,10.08,20.16,11.2V184h-25.6c-12.32-13.92-25.28-29.44-39.84-46.4-3.68-4.48-6.4-4.8-9-4.64v30.4c0,13.92,1.44,15,14.72,16.16V184H79.88v-4.48c13.12-1.12,14.4-2.24,14.4-16.16V101c0-14.4-1.12-15.52-14.4-16.48Z" style="fill:#fff"/></svg>