<svg id="Layer_1" enable-background="new 0 0 511.999 511.999" height="512" viewBox="0 0 511.999 511.999" width="512" xmlns="http://www.w3.org/2000/svg"><g><path d="m139.625 72.733-43.414-8.113c-14.534-2.716-28.511 6.898-31.22 21.473l-57.035 306.939c-2.708 14.575 6.878 28.592 21.412 31.308l306.068 57.198c14.534 2.716 28.511-6.898 31.219-21.473l11.921-64.155z" fill="#bfd5dd"/><path d="m504.499 56.788v312.33c0 14.8-11.99 26.79-26.79 26.79h-311.29c-14.8 0-26.79-11.99-26.79-26.79v-312.33c0-14.8 11.99-26.79 26.79-26.79h311.29c14.8 0 26.79 11.991 26.79 26.79z" fill="#e5f5f9"/><path d="m504.499 56.788v312.33c0 14.8-11.99 26.79-26.79 26.79h-37.98c14.8 0 26.79-11.99 26.79-26.79v-312.33c0-14.8-11.99-26.79-26.79-26.79h37.98c14.8 0 26.79 11.991 26.79 26.79z" fill="#bfd5dd"/><path d="m169.599 60.058h304.92v260.7h-304.92z" fill="#5cd5ff"/><path d="m439.729 60.058h34.79v260.7h-34.79z" fill="#5ab5ff"/><path d="m474.519 275.998v44.76h-304.92v-80.789h39.14l65.63-65.641 73.02 73.02 49.24-49.25 43.1 43.111z" fill="#91ff31"/><path d="m474.519 275.998v44.76h-34.79v-79.549z" fill="#00ea80"/><path d="m378.579 136.058c0 17.63-14.29 31.92-31.92 31.92-4.66 0-9.08-1-13.07-2.79-11.11-4.99-18.85-16.16-18.85-29.13s7.74-24.13 18.85-29.12c3.99-1.79 8.41-2.79 13.07-2.79 17.63.001 31.92 14.291 31.92 31.91z" fill="#ffeb31"/><path d="m378.579 136.058c0 17.63-14.29 31.92-31.92 31.92-4.66 0-9.08-1-13.07-2.79 11.12-4.99 18.86-16.16 18.86-29.13s-7.74-24.13-18.86-29.12c3.99-1.79 8.41-2.79 13.07-2.79 17.63.001 31.92 14.291 31.92 31.91z" fill="#ffce00"/></g><g><path d="m477.71 22.497h-311.296c-18.907 0-34.289 15.382-34.289 34.289v6.915l-34.536-6.454c-8.986-1.68-18.09.245-25.634 5.419-7.567 5.189-12.658 13.022-14.337 22.056l-57.035 306.94c-3.458 18.613 8.836 36.58 27.408 40.051l306.067 57.197c2.119.396 4.243.591 6.353.591 6.839 0 13.516-2.056 19.281-6.01 7.567-5.189 12.658-13.022 14.337-22.056l10.782-58.025h92.898c18.907 0 34.289-15.382 34.289-34.289v-312.335c.001-18.907-15.381-34.289-34.288-34.289zm19.289 346.624c0 10.636-8.653 19.289-19.289 19.289h-247.947c-4.142 0-7.5 3.358-7.5 7.5s3.358 7.5 7.5 7.5h139.792l-10.273 55.285c-.946 5.091-3.813 9.504-8.074 12.426-4.237 2.906-9.351 3.988-14.395 3.044l-306.067-57.197c-10.45-1.953-17.365-12.076-15.416-22.566l57.035-306.939c.946-5.091 3.813-9.504 8.074-12.426 4.237-2.907 9.347-3.987 14.395-3.044l37.292 6.969v290.16c0 18.907 15.382 34.289 34.289 34.289h28.737c4.142 0 7.5-3.358 7.5-7.5s-3.358-7.5-7.5-7.5h-28.737c-10.636 0-19.289-8.653-19.289-19.289v-312.336c0-10.636 8.653-19.289 19.289-19.289h311.295c10.636 0 19.289 8.653 19.289 19.289z"/><path d="m474.522 52.56h-304.92c-4.142 0-7.5 3.358-7.5 7.5v260.694c0 4.142 3.358 7.5 7.5 7.5h304.919c4.142 0 7.5-3.358 7.5-7.5v-194.563c0-4.142-3.358-7.5-7.5-7.5s-7.5 3.358-7.5 7.5v131.698l-65.091-65.09c-2.929-2.929-7.678-2.929-10.606 0l-43.939 43.939-67.709-67.709c-2.929-2.929-7.678-2.929-10.606 0l-63.438 63.438h-28.529v-164.907h289.919v23.936c0 4.142 3.358 7.5 7.5 7.5s7.5-3.358 7.5-7.5v-31.436c0-4.142-3.358-7.5-7.5-7.5zm-265.785 194.907c1.989 0 3.897-.79 5.303-2.197l60.332-60.332 67.709 67.709c2.929 2.929 7.678 2.929 10.606 0l43.939-43.939 70.394 70.394v34.152h-289.918v-65.787z"/><path d="m307.239 136.062c0 21.736 17.683 39.419 39.419 39.419 21.735 0 39.418-17.683 39.418-39.419s-17.683-39.419-39.418-39.419c-21.736 0-39.419 17.683-39.419 39.419zm63.837 0c0 13.465-10.954 24.419-24.418 24.419-13.465 0-24.419-10.954-24.419-24.419s10.954-24.419 24.419-24.419c13.464 0 24.418 10.954 24.418 24.419z"/></g></svg>