<svg height="464pt" viewBox="0 0 464 464" width="464pt" xmlns="http://www.w3.org/2000/svg"><path d="m376 280h-168v64h168c4.417969 0 8-3.582031 8-8v-48c0-4.417969-3.582031-8-8-8zm0 0" fill="#00ccb3"/><path d="m424 48h-.238281c-2.152344-27.703125-25.714844-48.8125-53.488281-47.9101562-27.769532.8984372-49.921876 23.4882812-50.273438 51.2695312-5.039062-2.222656-10.492188-3.367187-16-3.359375-22.089844 0-40 17.910156-40 40-.042969 10.621094 4.15625 20.824219 11.667969 28.332031 7.507812 7.511719 17.710937 11.710938 28.332031 11.667969h120c22.089844 0 40-17.910156 40-40s-17.910156-40-40-40zm0 0" fill="#78b9eb"/><path d="m120 40v-40h-112v192h144v-152zm0 0" fill="#ffb655"/><path d="m320 336h128v112h-128zm0 0" fill="#ffd422"/><path d="m368 374.960938c-.019531-2.949219 1.597656-5.667969 4.199219-7.058594 2.597656-1.394532 5.757812-1.230469 8.199219.417968l25.601562 17.039063c2.246094 1.460937 3.601562 3.960937 3.601562 6.640625s-1.355468 5.179688-3.601562 6.640625l-25.601562 17.039063c-2.441407 1.648437-5.601563 1.8125-8.199219.417968-2.601563-1.390625-4.21875-4.109375-4.199219-7.058594zm0 0" fill="#ff5023"/><path d="m120 0 32 40h-32zm0 0" fill="#ee8700"/><path d="m80 304h-80v144c.0273438 8.824219 7.175781 15.972656 16 16h176c8.824219-.027344 15.972656-7.175781 16-16v-144zm0 0" fill="#5aaae7"/><path d="m192 256h-176c-8.824219.027344-15.9726562 7.175781-16 16v32h208v-32c-.027344-8.824219-7.175781-15.972656-16-16zm0 0" fill="#ff6243"/><path d="m328 256h32v24h-32zm0 0" fill="#898890"/><path d="m328 168h32v24h-32zm0 0" fill="#898890"/><path d="m104 168h32v24h-32zm0 0" fill="#898890"/><path d="m152 192h224c4.417969 0 8 3.582031 8 8v48c0 4.417969-3.582031 8-8 8h-288c-4.417969 0-8-3.582031-8-8v-48c0-4.417969 3.582031-8 8-8zm0 0" fill="#00ccb3"/><path d="m376 104h-288c-4.417969 0-8 3.582031-8 8v48c0 4.417969 3.582031 8 8 8h288c4.417969 0 8-3.582031 8-8v-48c0-4.417969-3.582031-8-8-8zm0 0" fill="#00ccb3"/><g fill="#009986"><path d="m280 296h16v32h-16zm0 0"/><path d="m312 296h16v16h-16zm0 0"/><path d="m344 296h16v16h-16zm0 0"/><path d="m104 216h16v16h-16zm0 0"/><path d="m136 216h16v16h-16zm0 0"/><path d="m168 216h16v16h-16zm0 0"/><path d="m280 208h16v32h-16zm0 0"/><path d="m312 208h16v32h-16zm0 0"/><path d="m344 208h16v32h-16zm0 0"/><path d="m104 128h16v16h-16zm0 0"/><path d="m136 128h16v16h-16zm0 0"/><path d="m168 128h16v16h-16zm0 0"/><path d="m280 120h16v32h-16zm0 0"/><path d="m312 120h16v32h-16zm0 0"/><path d="m344 120h16v32h-16zm0 0"/></g><path d="m24 272h16v16h-16zm0 0" fill="#cd2a00"/><path d="m56 272h16v16h-16zm0 0" fill="#cd2a00"/><path d="m88 272h16v16h-16zm0 0" fill="#cd2a00"/><path d="m58.34375 413.65625-24-24c-3.121094-3.125-3.121094-8.1875 0-11.3125l24-24 11.3125 11.3125-18.34375 18.34375 18.34375 18.34375zm0 0" fill="#1e81ce"/><path d="m88.511719 413.1875 23.992187-64.003906 14.980469 5.617187-23.992187 64.003907zm0 0" fill="#1e81ce"/><path d="m149.65625 413.65625-11.3125-11.3125 18.34375-18.34375-18.34375-18.34375 11.3125-11.3125 24 24c3.121094 3.125 3.121094 8.1875 0 11.3125zm0 0" fill="#1e81ce"/><path d="m32 32h64v16h-64zm0 0" fill="#ee8700"/><path d="m32 64h64v16h-64zm0 0" fill="#ee8700"/></svg>