<?xml version="1.0" encoding="iso-8859-1"?>
<!-- Generator: Adobe Illustrator 16.0.0, SVG Export Plug-In . SVG Version: 6.00 Build 0)  -->
<!DOCTYPE svg PUBLIC "-//W3C//DTD SVG 1.1//EN" "http://www.w3.org/Graphics/SVG/1.1/DTD/svg11.dtd">
<svg version="1.1" id="Capa_1" xmlns="http://www.w3.org/2000/svg" x="0px" y="0px"
	 width="97.103px" height="97.104px" viewBox="0 0 97.103 97.104" style="enable-background:new 0 0 97.103 97.104;"
	 xml:space="preserve">
<path d="M93.82,0.37c-0.697-0.469-1.6-0.494-2.32-0.066L3.388,52.585c-0.748,0.444-1.158,1.291-1.043,2.152
	c0.113,0.86,0.732,1.571,1.568,1.805l22.389,6.233c0.68,0.188,1.409,0.036,1.956-0.41l35.768-29.219L39.075,64.993
	c-0.301,0.382-0.462,0.854-0.462,1.339v28.602c0,0.966,0.636,1.814,1.563,2.083c0.201,0.06,0.405,0.087,0.607,0.087
	c0.728,0,1.425-0.366,1.83-1.004l15.577-24.45l22.772,6.338c0.598,0.167,1.24,0.067,1.764-0.271
	c0.521-0.339,0.873-0.885,0.967-1.499L94.753,2.493C94.878,1.665,94.515,0.838,93.82,0.37z"/>
</svg>
