<svg id="图层_1" data-name="图层 1" xmlns="http://www.w3.org/2000/svg" viewBox="0 0 256 256"><defs><style>.cls-1{fill:#fa50ff;}.cls-2{fill:#17e57e;}.cls-3{fill:#15b1e8;}.cls-4{fill:#ff6660;}.cls-5{fill:#424242;}.cls-6{fill:#fff;}</style></defs><title>favicon.svg</title><rect class="cls-1" x="164" y="164" width="92" height="92"/><rect class="cls-2" y="164" width="92" height="92"/><rect class="cls-3" x="164" width="92" height="92"/><rect class="cls-4" width="92" height="92"/><rect class="cls-5" x="35" y="35" width="186" height="186"/><path class="cls-6" d="M81,79h42.66v4.48C111.22,84.6,109,85.72,109,100v27.52c3.2-.32,6.87-2.88,11.51-7.36,8.94-8.48,19.65-19.36,27-27.68,4.79-5.44,4.32-7.52-2.56-8.48l-4.47-.48V79h38.83v4.48c-12,1.44-16.14,2.24-26.85,13.28-4.79,4.64-17.25,16.8-27.48,26.88,12.14,14.4,29.88,34.88,38.19,43.68,8.15,8.8,10.23,10.08,20.13,11.2V183H157.72c-12.31-13.92-25.25-29.44-39.79-46.4-3.68-4.48-6.39-4.8-9-4.64v30.4c0,13.92,1.44,15,14.7,16.16V183H81v-4.48c13.1-1.12,14.38-2.24,14.38-16.16V100c0-14.4-1.12-15.52-14.38-16.48Z"/></svg>